<svg width="30" height="30" viewBox="0 0 30 30" fill="none" xmlns="http://www.w3.org/2000/svg">
<path d="M16.285 2.5C17.6912 2.50375 18.405 2.51125 19.0212 2.52875L19.2637 2.5375C19.5437 2.5475 19.82 2.56 20.1537 2.575C21.4837 2.6375 22.3912 2.8475 23.1875 3.15625C24.0125 3.47375 24.7075 3.90375 25.4025 4.5975C26.0381 5.22237 26.5299 5.97824 26.8437 6.8125C27.1525 7.60875 27.3625 8.51625 27.425 9.8475C27.44 10.18 27.4525 10.4563 27.4625 10.7375L27.47 10.98C27.4887 11.595 27.4962 12.3088 27.4987 13.715L27.5 14.6475V16.285C27.5031 17.1968 27.4935 18.1085 27.4712 19.02L27.4637 19.2625C27.4537 19.5438 27.4412 19.82 27.4262 20.1525C27.3637 21.4838 27.1512 22.39 26.8437 23.1875C26.5308 24.0222 26.0389 24.7783 25.4025 25.4025C24.7774 26.0379 24.0216 26.5297 23.1875 26.8438C22.3912 27.1525 21.4837 27.3625 20.1537 27.425C19.8571 27.439 19.5605 27.4515 19.2637 27.4625L19.0212 27.47C18.405 27.4875 17.6912 27.4963 16.285 27.4988L15.3525 27.5H13.7162C12.8041 27.5031 11.8919 27.4936 10.98 27.4713L10.7375 27.4638C10.4408 27.4525 10.1441 27.4396 9.84749 27.425C8.51749 27.3625 7.60999 27.1525 6.81249 26.8438C5.97833 26.5305 5.22276 26.0386 4.59874 25.4025C3.96255 24.7779 3.47027 24.022 3.15624 23.1875C2.84749 22.3913 2.63749 21.4838 2.57499 20.1525C2.56106 19.8559 2.54856 19.5592 2.53749 19.2625L2.53124 19.02C2.5082 18.1085 2.49779 17.1968 2.49999 16.285V13.715C2.4965 12.8033 2.50567 11.8915 2.52749 10.98L2.53624 10.7375C2.54624 10.4563 2.55874 10.18 2.57374 9.8475C2.63624 8.51625 2.84624 7.61 3.15499 6.8125C3.46888 5.97738 3.96214 5.22128 4.59999 4.5975C5.22385 3.96184 5.97892 3.46998 6.81249 3.15625C7.60999 2.8475 8.51624 2.6375 9.84749 2.575C10.18 2.56 10.4575 2.5475 10.7375 2.5375L10.98 2.53C11.8915 2.50779 12.8032 2.49821 13.715 2.50125L16.285 2.5ZM15 8.75C13.3424 8.75 11.7527 9.40848 10.5806 10.5806C9.40847 11.7527 8.74999 13.3424 8.74999 15C8.74999 16.6576 9.40847 18.2473 10.5806 19.4194C11.7527 20.5915 13.3424 21.25 15 21.25C16.6576 21.25 18.2473 20.5915 19.4194 19.4194C20.5915 18.2473 21.25 16.6576 21.25 15C21.25 13.3424 20.5915 11.7527 19.4194 10.5806C18.2473 9.40848 16.6576 8.75 15 8.75ZM15 11.25C15.4924 11.2499 15.9801 11.3468 16.4351 11.5352C16.8901 11.7236 17.3035 11.9997 17.6518 12.3479C18.0001 12.6961 18.2764 13.1094 18.4649 13.5644C18.6535 14.0193 18.7505 14.5069 18.7506 14.9994C18.7507 15.4918 18.6538 15.9795 18.4654 16.4345C18.277 16.8895 18.0009 17.3029 17.6527 17.6512C17.3045 17.9995 16.8912 18.2758 16.4363 18.4643C15.9813 18.6528 15.4937 18.7499 15.0012 18.75C14.0067 18.75 13.0529 18.3549 12.3496 17.6517C11.6463 16.9484 11.2512 15.9946 11.2512 15C11.2512 14.0054 11.6463 13.0516 12.3496 12.3483C13.0529 11.6451 14.0067 11.25 15.0012 11.25M21.5637 6.875C21.1493 6.875 20.7519 7.03962 20.4589 7.33265C20.1659 7.62567 20.0012 8.0231 20.0012 8.4375C20.0012 8.8519 20.1659 9.24933 20.4589 9.54236C20.7519 9.83538 21.1493 10 21.5637 10C21.9781 10 22.3756 9.83538 22.6686 9.54236C22.9616 9.24933 23.1262 8.8519 23.1262 8.4375C23.1262 8.0231 22.9616 7.62567 22.6686 7.33265C22.3756 7.03962 21.9781 6.875 21.5637 6.875Z" fill="black"/>
</svg>
