<svg width="296" height="33" viewBox="0 0 296 33" fill="none" xmlns="http://www.w3.org/2000/svg">
<path d="M0.24 26V3.6H6.576V26H0.24ZM24.6518 8.368C25.9958 8.368 27.2118 8.64533 28.2997 9.2C29.3878 9.73333 30.2411 10.5653 30.8598 11.696C31.4998 12.8267 31.8197 14.288 31.8197 16.08V26H25.7397V17.072C25.7397 15.8347 25.4838 14.9387 24.9718 14.384C24.4811 13.808 23.7878 13.52 22.8918 13.52C22.2518 13.52 21.6651 13.6693 21.1318 13.968C20.5984 14.2453 20.1824 14.6827 19.8837 15.28C19.5851 15.8773 19.4358 16.656 19.4358 17.616V26H13.3557V8.656H19.1477V13.584L18.0278 12.144C18.6891 10.8853 19.5957 9.94667 20.7478 9.328C21.8998 8.688 23.2011 8.368 24.6518 8.368ZM44.501 26.288C43.029 26.288 41.589 26.1173 40.181 25.776C38.7943 25.4347 37.6743 25.008 36.821 24.496L38.645 20.336C39.4557 20.8267 40.405 21.2213 41.493 21.52C42.581 21.7973 43.6477 21.936 44.693 21.936C45.717 21.936 46.421 21.8293 46.805 21.616C47.2103 21.4027 47.413 21.1147 47.413 20.752C47.413 20.4107 47.221 20.1653 46.837 20.016C46.4743 19.8453 45.9837 19.7173 45.365 19.632C44.7677 19.5467 44.1063 19.4507 43.381 19.344C42.6557 19.2373 41.9197 19.0987 41.173 18.928C40.4477 18.736 39.7757 18.4587 39.157 18.096C38.5597 17.712 38.0797 17.2 37.717 16.56C37.3543 15.92 37.173 15.1093 37.173 14.128C37.173 13.0187 37.493 12.0373 38.133 11.184C38.7943 10.3093 39.7543 9.62667 41.013 9.136C42.2717 8.624 43.8077 8.368 45.621 8.368C46.837 8.368 48.0637 8.496 49.301 8.752C50.5597 8.98667 51.6157 9.34933 52.469 9.84L50.645 13.968C49.7917 13.4773 48.9383 13.1467 48.085 12.976C47.2317 12.784 46.421 12.688 45.653 12.688C44.629 12.688 43.9037 12.8053 43.477 13.04C43.0717 13.2747 42.869 13.5627 42.869 13.904C42.869 14.2453 43.0503 14.512 43.413 14.704C43.7757 14.8747 44.2557 15.0133 44.853 15.12C45.4717 15.2053 46.1437 15.3013 46.869 15.408C47.5943 15.4933 48.3197 15.632 49.045 15.824C49.7917 16.016 50.4637 16.304 51.061 16.688C51.6797 17.0507 52.1703 17.552 52.533 18.192C52.8957 18.8107 53.077 19.6107 53.077 20.592C53.077 21.6587 52.7463 22.6187 52.085 23.472C51.445 24.3253 50.485 25.008 49.205 25.52C47.9463 26.032 46.3783 26.288 44.501 26.288ZM58.257 26V8.656H64.337V26H58.257ZM61.297 6.736C60.1877 6.736 59.2917 6.42666 58.609 5.808C57.9263 5.18933 57.585 4.42133 57.585 3.504C57.585 2.58667 57.9263 1.81867 58.609 1.2C59.2917 0.581333 60.1877 0.271999 61.297 0.271999C62.4063 0.271999 63.3023 0.570666 63.985 1.168C64.6677 1.744 65.009 2.49067 65.009 3.408C65.009 4.368 64.6677 5.168 63.985 5.808C63.3237 6.42666 62.4277 6.736 61.297 6.736ZM79.3282 32.496C77.6642 32.496 76.0749 32.304 74.5602 31.92C73.0669 31.536 71.7869 30.9707 70.7202 30.224L72.9282 25.968C73.6536 26.544 74.5496 26.992 75.6162 27.312C76.7042 27.6533 77.7602 27.824 78.7842 27.824C80.4269 27.824 81.6109 27.4613 82.3362 26.736C83.0616 26.032 83.4242 24.9973 83.4242 23.632V21.584L83.7442 16.72L83.7122 11.824V8.656H89.5042V22.832C89.5042 26.1173 88.6189 28.5493 86.8482 30.128C85.0776 31.7067 82.5709 32.496 79.3282 32.496ZM78.2722 25.104C76.7362 25.104 75.3176 24.7627 74.0162 24.08C72.7362 23.376 71.7016 22.4053 70.9122 21.168C70.1442 19.9093 69.7602 18.4267 69.7602 16.72C69.7602 15.0133 70.1442 13.5413 70.9122 12.304C71.7016 11.0453 72.7362 10.0747 74.0162 9.392C75.3176 8.70933 76.7362 8.368 78.2722 8.368C79.7442 8.368 81.0029 8.66667 82.0482 9.264C83.0936 9.84 83.8829 10.7467 84.4162 11.984C84.9709 13.2213 85.2482 14.8 85.2482 16.72C85.2482 18.64 84.9709 20.2187 84.4162 21.456C83.8829 22.6933 83.0936 23.6107 82.0482 24.208C81.0029 24.8053 79.7442 25.104 78.2722 25.104ZM79.7122 20.272C80.4376 20.272 81.0776 20.1227 81.6322 19.824C82.2082 19.5253 82.6562 19.1093 82.9762 18.576C83.3176 18.0427 83.4882 17.424 83.4882 16.72C83.4882 16.016 83.3176 15.3973 82.9762 14.864C82.6562 14.3307 82.2082 13.9253 81.6322 13.648C81.0776 13.3493 80.4376 13.2 79.7122 13.2C78.9869 13.2 78.3362 13.3493 77.7602 13.648C77.1842 13.9253 76.7256 14.3307 76.3842 14.864C76.0642 15.3973 75.9042 16.016 75.9042 16.72C75.9042 17.424 76.0642 18.0427 76.3842 18.576C76.7256 19.1093 77.1842 19.5253 77.7602 19.824C78.3362 20.1227 78.9869 20.272 79.7122 20.272ZM107.267 8.368C108.611 8.368 109.827 8.64533 110.915 9.2C112.003 9.73333 112.856 10.5653 113.475 11.696C114.115 12.8267 114.435 14.288 114.435 16.08V26H108.355V17.072C108.355 15.8347 108.099 14.9387 107.587 14.384C107.096 13.808 106.403 13.52 105.507 13.52C104.867 13.52 104.28 13.6693 103.747 13.968C103.213 14.2453 102.797 14.6827 102.499 15.28C102.2 15.8773 102.051 16.656 102.051 17.616V26H95.9708V2.256H102.051V13.584L100.643 12.144C101.304 10.8853 102.211 9.94667 103.363 9.328C104.515 8.688 105.816 8.368 107.267 8.368ZM128.556 26.288C126.337 26.288 124.609 25.744 123.372 24.656C122.135 23.5467 121.516 21.8827 121.516 19.664V4.784H127.596V19.6C127.596 20.2187 127.767 20.7093 128.108 21.072C128.449 21.4133 128.887 21.584 129.42 21.584C130.145 21.584 130.764 21.4027 131.276 21.04L132.78 25.296C132.268 25.6373 131.639 25.8827 130.892 26.032C130.145 26.2027 129.367 26.288 128.556 26.288ZM118.988 13.84V9.296H131.564V13.84H118.988ZM149.172 26.448C147.402 26.448 145.759 26.1707 144.244 25.616C142.73 25.04 141.418 24.2293 140.308 23.184C139.22 22.1387 138.367 20.912 137.748 19.504C137.13 18.0747 136.82 16.5067 136.82 14.8C136.82 13.0933 137.13 11.536 137.748 10.128C138.367 8.69867 139.231 7.46133 140.34 6.416C141.45 5.37067 142.762 4.57067 144.276 4.016C145.812 3.44 147.487 3.152 149.3 3.152C151.412 3.152 153.3 3.504 154.964 4.208C156.628 4.912 158.004 5.92533 159.092 7.248L155.06 10.896C154.292 10.064 153.46 9.44533 152.564 9.04C151.69 8.61333 150.708 8.4 149.62 8.4C148.66 8.4 147.786 8.54933 146.996 8.848C146.207 9.14667 145.535 9.584 144.98 10.16C144.426 10.7147 143.988 11.3867 143.668 12.176C143.37 12.944 143.22 13.8187 143.22 14.8C143.22 15.7387 143.37 16.6027 143.668 17.392C143.988 18.1813 144.426 18.864 144.98 19.44C145.535 19.9947 146.196 20.432 146.964 20.752C147.754 21.0507 148.618 21.2 149.556 21.2C150.495 21.2 151.412 21.0507 152.308 20.752C153.204 20.432 154.111 19.8987 155.028 19.152L158.58 23.6C157.3 24.5173 155.818 25.2213 154.132 25.712C152.447 26.2027 150.794 26.448 149.172 26.448ZM152.98 22.768V14.32H158.58V23.6L152.98 22.768ZM175.461 26V22.768L175.045 21.968V16.016C175.045 15.056 174.747 14.32 174.149 13.808C173.573 13.2747 172.645 13.008 171.365 13.008C170.533 13.008 169.691 13.1467 168.837 13.424C167.984 13.68 167.259 14.0427 166.661 14.512L164.613 10.384C165.595 9.744 166.768 9.25333 168.133 8.912C169.52 8.54933 170.896 8.368 172.261 8.368C175.077 8.368 177.253 9.01867 178.789 10.32C180.347 11.6 181.125 13.616 181.125 16.368V26H175.461ZM170.341 26.288C168.955 26.288 167.781 26.0533 166.821 25.584C165.861 25.1147 165.125 24.4747 164.613 23.664C164.123 22.8533 163.877 21.9467 163.877 20.944C163.877 19.8773 164.144 18.96 164.677 18.192C165.232 17.4027 166.075 16.8053 167.205 16.4C168.336 15.9733 169.797 15.76 171.589 15.76H175.685V18.928H172.421C171.44 18.928 170.747 19.088 170.341 19.408C169.957 19.728 169.765 20.1547 169.765 20.688C169.765 21.2213 169.968 21.648 170.373 21.968C170.779 22.288 171.333 22.448 172.037 22.448C172.699 22.448 173.296 22.288 173.829 21.968C174.384 21.6267 174.789 21.1147 175.045 20.432L175.877 22.672C175.557 23.8667 174.928 24.7733 173.989 25.392C173.072 25.9893 171.856 26.288 170.341 26.288ZM195.267 26.288C193.049 26.288 191.321 25.744 190.083 24.656C188.846 23.5467 188.227 21.8827 188.227 19.664V4.784H194.307V19.6C194.307 20.2187 194.478 20.7093 194.819 21.072C195.161 21.4133 195.598 21.584 196.131 21.584C196.857 21.584 197.475 21.4027 197.987 21.04L199.491 25.296C198.979 25.6373 198.35 25.8827 197.603 26.032C196.857 26.2027 196.078 26.288 195.267 26.288ZM185.699 13.84V9.296H198.275V13.84H185.699ZM215.692 8.368C217.036 8.368 218.252 8.64533 219.34 9.2C220.428 9.73333 221.281 10.5653 221.9 11.696C222.54 12.8267 222.86 14.288 222.86 16.08V26H216.78V17.072C216.78 15.8347 216.524 14.9387 216.012 14.384C215.521 13.808 214.828 13.52 213.932 13.52C213.292 13.52 212.705 13.6693 212.172 13.968C211.638 14.2453 211.222 14.6827 210.924 15.28C210.625 15.8773 210.476 16.656 210.476 17.616V26H204.396V2.256H210.476V13.584L209.068 12.144C209.729 10.8853 210.636 9.94667 211.788 9.328C212.94 8.688 214.241 8.368 215.692 8.368ZM238.544 26.288C236.496 26.288 234.704 25.904 233.168 25.136C231.653 24.3467 230.469 23.28 229.616 21.936C228.784 20.5707 228.368 19.024 228.368 17.296C228.368 15.568 228.773 14.032 229.584 12.688C230.416 11.3227 231.557 10.2667 233.008 9.52C234.458 8.752 236.09 8.368 237.904 8.368C239.61 8.368 241.168 8.72 242.576 9.424C243.984 10.1067 245.104 11.12 245.936 12.464C246.768 13.808 247.184 15.44 247.184 17.36C247.184 17.5733 247.173 17.8187 247.152 18.096C247.13 18.3733 247.109 18.6293 247.088 18.864H233.36V15.664H243.856L241.552 16.56C241.573 15.7707 241.424 15.088 241.104 14.512C240.805 13.936 240.378 13.488 239.824 13.168C239.29 12.848 238.661 12.688 237.936 12.688C237.21 12.688 236.57 12.848 236.016 13.168C235.482 13.488 235.066 13.9467 234.768 14.544C234.469 15.12 234.32 15.8027 234.32 16.592V17.52C234.32 18.3733 234.49 19.1093 234.832 19.728C235.194 20.3467 235.706 20.8267 236.368 21.168C237.029 21.488 237.818 21.648 238.736 21.648C239.589 21.648 240.314 21.5307 240.912 21.296C241.53 21.04 242.138 20.656 242.736 20.144L245.936 23.472C245.104 24.3893 244.08 25.0933 242.864 25.584C241.648 26.0533 240.208 26.288 238.544 26.288ZM252.547 26V8.656H258.339V13.712L257.475 12.272C257.987 10.9707 258.819 10 259.971 9.36C261.123 8.69867 262.52 8.368 264.163 8.368V13.84C263.886 13.7973 263.64 13.776 263.427 13.776C263.235 13.7547 263.022 13.744 262.787 13.744C261.55 13.744 260.547 14.0853 259.779 14.768C259.011 15.4293 258.627 16.5173 258.627 18.032V26H252.547ZM275.598 26.288C274.126 26.288 272.686 26.1173 271.278 25.776C269.892 25.4347 268.772 25.008 267.918 24.496L269.742 20.336C270.553 20.8267 271.502 21.2213 272.59 21.52C273.678 21.7973 274.745 21.936 275.79 21.936C276.814 21.936 277.518 21.8293 277.902 21.616C278.308 21.4027 278.51 21.1147 278.51 20.752C278.51 20.4107 278.318 20.1653 277.934 20.016C277.572 19.8453 277.081 19.7173 276.462 19.632C275.865 19.5467 275.204 19.4507 274.478 19.344C273.753 19.2373 273.017 19.0987 272.27 18.928C271.545 18.736 270.873 18.4587 270.254 18.096C269.657 17.712 269.177 17.2 268.814 16.56C268.452 15.92 268.27 15.1093 268.27 14.128C268.27 13.0187 268.59 12.0373 269.23 11.184C269.892 10.3093 270.852 9.62667 272.11 9.136C273.369 8.624 274.905 8.368 276.718 8.368C277.934 8.368 279.161 8.496 280.398 8.752C281.657 8.98667 282.713 9.34933 283.566 9.84L281.742 13.968C280.889 13.4773 280.036 13.1467 279.182 12.976C278.329 12.784 277.518 12.688 276.75 12.688C275.726 12.688 275.001 12.8053 274.574 13.04C274.169 13.2747 273.966 13.5627 273.966 13.904C273.966 14.2453 274.148 14.512 274.51 14.704C274.873 14.8747 275.353 15.0133 275.95 15.12C276.569 15.2053 277.241 15.3013 277.966 15.408C278.692 15.4933 279.417 15.632 280.142 15.824C280.889 16.016 281.561 16.304 282.158 16.688C282.777 17.0507 283.268 17.552 283.63 18.192C283.993 18.8107 284.174 19.6107 284.174 20.592C284.174 21.6587 283.844 22.6187 283.182 23.472C282.542 24.3253 281.582 25.008 280.302 25.52C279.044 26.032 277.476 26.288 275.598 26.288ZM291.914 26.288C290.89 26.288 290.026 25.9467 289.322 25.264C288.618 24.5813 288.266 23.7173 288.266 22.672C288.266 21.584 288.618 20.72 289.322 20.08C290.026 19.4187 290.89 19.088 291.914 19.088C292.938 19.088 293.802 19.4187 294.506 20.08C295.21 20.72 295.562 21.584 295.562 22.672C295.562 23.7173 295.21 24.5813 294.506 25.264C293.802 25.9467 292.938 26.288 291.914 26.288Z" fill="black"/>
</svg>
