<svg width="101" height="30" viewBox="0 0 101 30" fill="none" xmlns="http://www.w3.org/2000/svg">
<g clip-path="url(#clip0_74_426)">
<path d="M15.7969 0C7.51286 0 0.796997 6.71568 0.796997 14.9997C0.796997 23.2847 7.51286 30 15.7969 30C24.0813 30 30.7968 23.2847 30.7968 14.9997C30.7968 6.71621 24.0817 0.000715925 15.7967 0.000715925L15.7969 0ZM22.6758 21.6339C22.4064 22.0758 21.8307 22.2143 21.3902 21.945C17.8679 19.7922 13.4343 19.3059 8.21302 20.4987C7.70988 20.614 7.20835 20.2986 7.09372 19.7956C6.97855 19.2925 7.29254 18.7909 7.79693 18.6763C13.5108 17.37 18.412 17.9323 22.3657 20.3482C22.8063 20.6187 22.946 21.1936 22.6756 21.6343L22.6758 21.6339ZM24.5117 17.5502C24.1725 18.1006 23.4528 18.2733 22.9031 17.9353C18.872 15.4574 12.7252 14.7396 7.95617 16.1873C7.33767 16.3741 6.68443 16.0255 6.49672 15.4081C6.31043 14.7896 6.65918 14.1376 7.2766 13.9496C12.7241 12.2967 19.4962 13.0973 24.1264 15.9426C24.6763 16.2811 24.8501 17.0012 24.5115 17.5504L24.5117 17.5502ZM24.6693 13.2972C19.8342 10.4258 11.8588 10.1617 7.24309 11.5626C6.50191 11.7874 5.71808 11.369 5.49347 10.6278C5.26885 9.88625 5.68692 9.10296 6.42864 8.87763C11.7271 7.26916 20.5353 7.57992 26.1012 10.8841C26.7679 11.2798 26.9866 12.1408 26.5915 12.8066C26.1974 13.4733 25.334 13.693 24.6695 13.2972H24.6693ZM41.6068 13.8475C39.0169 13.2299 38.5559 12.7964 38.5559 11.8856C38.5559 11.0251 39.366 10.446 40.5708 10.446C41.7386 10.446 42.8966 10.8857 44.1107 11.791C44.1474 11.8184 44.1934 11.8293 44.2387 11.8222C44.2841 11.8154 44.3242 11.7905 44.3507 11.753L45.6153 9.97044C45.6672 9.897 45.6531 9.7958 45.583 9.73973C44.1381 8.5803 42.511 8.01661 40.6091 8.01661C37.8127 8.01661 35.8594 9.69477 35.8594 12.0959C35.8594 14.6707 37.5444 15.5824 40.4561 16.2862C42.9344 16.857 43.3527 17.3353 43.3527 18.1902C43.3527 19.1375 42.5069 19.7265 41.1457 19.7265C39.634 19.7265 38.4009 19.2173 37.0215 18.0227C36.9873 17.9931 36.9404 17.9797 36.8971 17.9822C36.8514 17.986 36.8096 18.0071 36.7806 18.0421L35.3627 19.7295C35.3033 19.7996 35.3108 19.9042 35.3796 19.9647C36.9845 21.3975 38.9583 22.1543 41.0884 22.1543C44.1017 22.1543 46.0489 20.5078 46.0489 17.9595C46.0543 15.8083 44.7665 14.6171 41.6122 13.8498L41.6068 13.8475ZM52.8662 11.2932C51.56 11.2932 50.4887 11.8077 49.6053 12.8618V11.6753C49.6053 11.5816 49.5294 11.5053 49.4359 11.5053H47.1168C47.0231 11.5053 46.9474 11.5816 46.9474 11.6753V24.8588C46.9474 24.9524 47.0231 25.0287 47.1168 25.0287H49.4359C49.5294 25.0287 49.6053 24.9524 49.6053 24.8588V20.6973C50.4889 21.6889 51.5604 22.1734 52.8662 22.1734C55.293 22.1734 57.7498 20.3052 57.7498 16.7339C57.7534 13.1618 55.2959 11.293 52.8689 11.293L52.8662 11.2932ZM55.0532 16.7339C55.0532 18.5525 53.933 19.8216 52.329 19.8216C50.7433 19.8216 49.5471 18.4949 49.5471 16.7339C49.5471 14.9732 50.7433 13.6463 52.329 13.6463C53.907 13.6461 55.0534 14.9444 55.0534 16.7338L55.0532 16.7339ZM64.0467 11.2932C60.9213 11.2932 58.4727 13.6999 58.4727 16.7728C58.4727 19.8123 60.9045 22.1936 64.0084 22.1936C67.145 22.1936 69.601 19.7951 69.601 16.7339C69.601 13.6834 67.1614 11.2936 64.0466 11.2936L64.0467 11.2932ZM64.0467 19.8397C62.3843 19.8397 61.131 18.504 61.131 16.733C61.131 14.9546 62.341 13.664 64.0084 13.664C65.6815 13.664 66.9433 14.9997 66.9433 16.7719C66.9433 18.55 65.7253 19.8397 64.0469 19.8397H64.0467ZM76.2751 11.5053H73.7232V8.89627C73.7232 8.80277 73.6477 8.72647 73.554 8.72647H71.2353C71.1414 8.72647 71.0653 8.80277 71.0653 8.89627V11.5053H69.9503C69.857 11.5053 69.7814 11.5816 69.7814 11.6753V13.6683C69.7814 13.7618 69.857 13.8383 69.9503 13.8383H71.0653V18.9953C71.0653 21.0794 72.1026 22.136 74.1483 22.136C74.9801 22.136 75.6703 21.9642 76.3206 21.5954C76.3735 21.5658 76.4062 21.5089 76.4062 21.4484V19.5504C76.4062 19.4918 76.3758 19.4365 76.3257 19.4059C76.2751 19.3742 76.2123 19.3725 76.1605 19.3982C75.7138 19.623 75.2819 19.7267 74.7992 19.7267C74.0552 19.7267 73.7232 19.3888 73.7232 18.6317V13.8392H76.2751C76.3688 13.8392 76.4442 13.7629 76.4442 13.6692V11.6764C76.4478 11.5827 76.3726 11.5064 76.2777 11.5064L76.2751 11.5053ZM85.1666 11.5155V11.1951C85.1666 10.2524 85.528 9.83198 86.3387 9.83198C86.8222 9.83198 87.2105 9.92798 87.6454 10.0731C87.699 10.0899 87.7548 10.0815 87.7984 10.0494C87.8432 10.0174 87.8684 9.96595 87.8684 9.9115V7.95732C87.8684 7.88262 87.8204 7.81653 87.7484 7.7945C87.289 7.65782 86.7011 7.51758 85.8209 7.51758C83.679 7.51758 82.5468 8.72376 82.5468 11.0045V11.4953H81.4327C81.3392 11.4953 81.2625 11.5716 81.2625 11.6651V13.6683C81.2625 13.7618 81.3392 13.8383 81.4327 13.8383H82.5468V21.7928C82.5468 21.8864 82.6224 21.9627 82.7159 21.9627H85.035C85.1286 21.9627 85.2049 21.8864 85.2049 21.7928V13.8389H87.3701L90.6868 21.7914C90.3103 22.6269 89.9401 22.7932 89.4346 22.7932C89.0261 22.7932 88.5958 22.6712 88.1559 22.4304C88.1145 22.4077 88.0654 22.4039 88.0208 22.4177C87.9766 22.4333 87.9394 22.4663 87.9205 22.5093L87.1346 24.2336C87.0971 24.3151 87.1292 24.4108 87.2076 24.4531C88.0282 24.8974 88.7689 25.0871 89.6843 25.0871C91.3967 25.0871 92.3432 24.2895 93.1775 22.1437L97.2007 11.7476C97.2209 11.6953 97.2148 11.6362 97.1828 11.5898C97.1509 11.5438 97.0995 11.516 97.0432 11.516H94.6291C94.5567 11.516 94.492 11.5621 94.4684 11.63L91.9953 18.694L89.2865 11.6253C89.2618 11.5596 89.1984 11.516 89.1282 11.516H85.1661L85.1666 11.5155ZM80.0116 11.5053H77.6925C77.5988 11.5053 77.5225 11.5816 77.5225 11.6753V21.7928C77.5225 21.8865 77.5988 21.9628 77.6925 21.9628H80.0116C80.105 21.9628 80.1815 21.8865 80.1815 21.7928V11.676C80.1816 11.6536 80.1772 11.6315 80.1687 11.6108C80.1601 11.5902 80.1476 11.5714 80.1318 11.5556C80.116 11.5398 80.0972 11.5273 80.0765 11.5188C80.0559 11.5103 80.0337 11.5059 80.0114 11.506L80.0116 11.5053ZM78.8652 6.89857C77.9465 6.89857 77.201 7.64225 77.201 8.56096C77.201 9.4802 77.9467 10.2248 78.8652 10.2248C79.7835 10.2248 80.5283 9.4802 80.5283 8.56096C80.5283 7.64244 79.7832 6.89857 78.8661 6.89857H78.8652ZM99.1808 14.7583C98.263 14.7583 97.5489 14.0212 97.5489 13.1261C97.5489 12.2311 98.2723 11.4856 99.1894 11.4856C100.107 11.4856 100.821 12.2225 100.821 13.1168C100.821 14.0119 100.098 14.7583 99.1806 14.7583H99.1808ZM99.1898 11.6479C98.3538 11.6479 97.7214 12.3124 97.7214 13.1261C97.7214 13.9395 98.3493 14.5951 99.1813 14.5951C100.017 14.5951 100.65 13.9311 100.65 13.1168C100.65 12.3035 100.022 11.6479 99.1905 11.6479H99.1898ZM99.5516 13.2847L100.013 13.9309H99.624L99.2084 13.338H98.8511V13.9309H98.5253V12.2178H99.2892C99.6872 12.2178 99.9489 12.4215 99.9489 12.7643C99.9507 13.0452 99.7877 13.2168 99.553 13.2847H99.5516V13.2847ZM99.2758 12.5118H98.8509V13.0536H99.2758C99.4878 13.0536 99.6144 12.9499 99.6144 12.7824C99.6144 12.6062 99.4873 12.5118 99.2759 12.5118H99.2758V12.5118Z" fill="#A3A5AA"/>
</g>
<defs>
<clipPath id="clip0_74_426">
<rect width="100.024" height="30" fill="white" transform="translate(0.796997)"/>
</clipPath>
</defs>
</svg>
