<svg width="93" height="30" viewBox="0 0 93 30" fill="none" xmlns="http://www.w3.org/2000/svg">
<g clip-path="url(#clip0_74_419)">
<path d="M12.1405 0.00341797H12.9578C15.7953 0.0651037 18.5866 1.20629 20.5914 3.2265C19.8512 3.98215 19.0955 4.70695 18.3707 5.4626C17.245 4.44479 15.8879 3.6583 14.4074 3.38071C12.2176 2.91807 9.85809 3.33445 8.02294 4.58358C6.01815 5.8944 4.66107 8.11509 4.36806 10.49C4.04421 12.834 4.70733 15.3015 6.23405 17.1212C7.69909 18.8947 9.9352 20.005 12.2484 20.0821C14.4074 20.2055 16.6589 19.5424 18.2319 18.0311C19.4656 16.967 20.0362 15.3477 20.2213 13.7747C17.6613 13.7747 15.1014 13.7902 12.5414 13.7747V10.5979H23.321C23.8762 14.0061 23.0743 17.846 20.4835 20.2826C18.7563 22.0098 16.3659 23.0276 13.9294 23.2281C11.5699 23.4594 9.13328 23.0122 7.03597 21.871C4.52227 20.5293 2.51749 18.2624 1.53051 15.5945C0.605227 13.1425 0.589806 10.3666 1.45341 7.89919C2.2399 5.64766 3.7512 3.6583 5.6943 2.27037C7.5603 0.897861 9.82725 0.142211 12.1405 0.00341797Z" fill="#A3A5AA"/>
<path d="M73.9806 0.804443H77.2807V22.8263C76.1858 22.8263 75.0755 22.8417 73.9806 22.8108C73.996 15.4856 73.9806 8.14505 73.9806 0.804443Z" fill="#A3A5AA"/>
<path d="M30.6618 8.43807C32.6974 8.05253 34.9027 8.48433 36.5836 9.70263C38.1103 10.7821 39.1744 12.4785 39.4983 14.329C39.9147 16.4726 39.3903 18.8167 38.0024 20.513C36.5065 22.4099 34.0545 23.4277 31.6642 23.2735C29.4743 23.1501 27.3462 22.0552 26.0508 20.2663C24.5857 18.2924 24.231 15.5782 25.033 13.265C25.8349 10.7821 28.1018 8.88529 30.6618 8.43807ZM31.1244 11.3681C30.2917 11.584 29.5206 12.0621 28.9654 12.7406C27.4695 14.5295 27.5621 17.4442 29.2122 19.1097C30.1529 20.0658 31.5717 20.513 32.8825 20.2509C34.1008 20.035 35.1649 19.2176 35.7509 18.1381C36.7687 16.303 36.4757 13.7739 34.9181 12.3397C33.9157 11.4144 32.4507 11.0289 31.1244 11.3681Z" fill="#A3A5AA"/>
<path d="M47.0085 8.43823C49.3371 7.99101 51.8817 8.63871 53.6243 10.2734C56.4618 12.8179 56.7703 17.5831 54.3491 20.5132C52.8841 22.3638 50.5092 23.3816 48.1651 23.2736C45.929 23.212 43.7237 22.1016 42.3975 20.2665C40.9016 18.2463 40.5778 15.4704 41.4259 13.1109C42.2741 10.7052 44.4948 8.87003 47.0085 8.43823ZM47.4711 11.3683C46.6384 11.5842 45.8673 12.0623 45.3121 12.7254C43.8317 14.4834 43.8934 17.3518 45.4818 19.0328C46.4225 20.0351 47.8875 20.5286 49.2446 20.251C50.4475 20.0197 51.527 19.2178 52.113 18.1383C53.1154 16.2877 52.8224 13.7586 51.2494 12.3244C50.247 11.3991 48.782 11.029 47.4711 11.3683Z" fill="#A3A5AA"/>
<path d="M60.8724 9.33266C62.6459 8.22232 65.0054 7.91389 66.9176 8.87002C67.519 9.13218 68.0125 9.57941 68.4906 10.0266C68.506 9.61025 68.4906 9.17845 68.506 8.74665C69.5393 8.76207 70.5725 8.74665 71.6212 8.76207V22.3638C71.6057 24.4148 71.0814 26.5893 69.6009 28.0851C67.9817 29.7352 65.4988 30.2441 63.2627 29.9049C60.8724 29.5502 58.7905 27.8075 57.8652 25.6023C58.7905 25.1551 59.7621 24.8004 60.7182 24.384C61.2579 25.6485 62.3529 26.728 63.7254 26.9748C65.0979 27.2215 66.6863 26.8823 67.5807 25.7411C68.5369 24.569 68.5369 22.9652 68.4906 21.531C67.7812 22.225 66.9639 22.8418 65.9769 23.0732C63.8333 23.6746 61.4738 22.9344 59.8238 21.4848C58.1582 20.0351 57.1713 17.799 57.2638 15.5783C57.3101 13.0647 58.7288 10.6435 60.8724 9.33266ZM64.0646 11.3066C63.1239 11.4608 62.2449 11.9851 61.6435 12.71C60.1939 14.4372 60.1939 17.1976 61.6589 18.894C62.4917 19.8963 63.8333 20.4515 65.1287 20.3127C66.347 20.1894 67.4728 19.4183 68.0742 18.3542C69.092 16.5499 68.9224 14.0979 67.5499 12.5249C66.7017 11.5533 65.3446 11.0753 64.0646 11.3066Z" fill="#A3A5AA"/>
<path d="M81.2441 10.119C83.0947 8.39182 85.9477 7.8058 88.3226 8.71567C90.5741 9.56385 92.0083 11.7074 92.7331 13.9127C89.3866 15.3006 86.0556 16.6731 82.7091 18.0611C83.1718 18.9401 83.8812 19.742 84.8373 20.0659C86.179 20.5439 87.7828 20.3743 88.9086 19.4798C89.3558 19.1406 89.7105 18.6933 90.0498 18.2615C90.8979 18.8321 91.7461 19.3873 92.5943 19.9579C91.3914 21.7622 89.3712 23.0268 87.1968 23.2273C84.791 23.5203 82.2311 22.595 80.6735 20.7136C78.1135 17.7526 78.3603 12.7869 81.2441 10.119ZM82.8942 12.972C82.3699 13.7276 82.154 14.6529 82.1694 15.5628C84.4055 14.6375 86.6416 13.7122 88.8777 12.7715C88.5076 11.9079 87.6132 11.3836 86.7033 11.2448C85.2383 10.9826 83.7115 11.7691 82.8942 12.972Z" fill="#A3A5AA"/>
</g>
<defs>
<clipPath id="clip0_74_419">
<rect width="91.9118" height="30" fill="white" transform="translate(0.821289)"/>
</clipPath>
</defs>
</svg>
